# xmcd
#
# Track frame offsets:
#	150
#	17783
#	35266
#	52151
#	71885
#	91767
#	108501
#	127034
#	146392
#	166050
#	180529
#	196288
#	207025
#	222784
#	237942
#	254614
#
# Disc length: 3561 seconds
#
# Revision: 1
# Processed by: cddbd v1.5.2PL0 Copyright (c) Steve Scherf et al.
# Submitted via: audiograbber 1.83.01
#
DISCID=e40de710
DTITLE=Brooks, Garth - LG174
DYEAR=1900
DGENRE=Karaoke
TTITLE0=Friends In Low Places
TTITLE1=Thunder Rolls, The
TTITLE2=Dance, The
TTITLE3=Wrapped Up In You
TTITLE4=Shameless
TTITLE5=Rodeo
TTITLE6=Ain't Goin' Down 'Till The Sun Goes Up
TTITLE7=Beaches Of Cheyenne, The
TTITLE8=River, The
TTITLE9=Beer Run
TTITLE10=In Another's Eyes
TTITLE11=Longneck Bottle
TTITLE12=Two Pina Coladas
TTITLE13=Unanswered Prayers
TTITLE14=If Tomorrow Never Comes
TTITLE15=Papa Loved Mama
EXTD=
EXTT0=
EXTT1=
EXTT2=
EXTT3=
EXTT4=
EXTT5=
EXTT6=
EXTT7=
EXTT8=
EXTT9=
EXTT10=
EXTT11=
EXTT12=
EXTT13=
EXTT14=
EXTT15=
PLAYORDER=
